# xmcd CD database file
#
# Track frame offsets:
#	150
#	11027
#	25350
#	39317
#	50245
#	64152
#	77330
#	91292
#	103207
#	115732
#	127867
#	139590
#	150750
#	162505
#	176092
#	185677
#
# Disc length: 2701 seconds
#
# Revision: 5
# Processed by: cddbd v1.5.2PL0 Copyright (c) Steve Scherf et al.
# Submitted via: CDex 1.70beta2
#
DISCID=cc0a8b10
DTITLE=Various Artist - Country and Western Songs - CD 1
DYEAR=1900
DGENRE=Country
TTITLE0=Ferlin Husky - The Wings Of A Dove
TTITLE1=Bobby Bare - Leaving On A Jetplane
TTITLE2=Freddy Quinn - Take Me Home Country Roads
TTITLE3=Dave Dudley - Get Me Bach To Tennessee
TTITLE4=George Kent - Doogie Ray
TTITLE5=Linda Menning - If Only For A Moment
TTITLE6=Barbara Perry - Why Can't Women Have A Good Beer...
TTITLE7=Freddy Quinn - On Top Of Old Smokie
TTITLE8=Bobby Bare - Come Sundown
TTITLE9=The City Of Prague - The Good, The Bad and The Ugly
TTITLE10=Dave Dudley - Six Days On The Road
TTITLE11=Ferlin Husky - The Bridge I Have Never Crossed
TTITLE12=Billy Grammer - Papa And Mama
TTITLE13=Rick Johnson - I've Heard Those Very Lines Before
TTITLE14=Dave Dudley - Rolling On Your Track
TTITLE15=Bobby Bare - Sylvia's Mother
EXTD=
EXTT0=
EXTT1=
EXTT2=
EXTT3=
EXTT4=
EXTT5=
EXTT6=
EXTT7=
EXTT8=
EXTT9=
EXTT10=
EXTT11=
EXTT12=
EXTT13=
EXTT14=
EXTT15=
PLAYORDER=
